<svg width="137.829" height="137.787" xmlns="http://www.w3.org/2000/svg">
 <defs>
  <radialGradient gradientTransform="matrix(0.8218687772750854,0,0,0.3725959062576294,66.29421997070312,75.05973815917969)" gradientUnits="userSpaceOnUse" r="64.054" cy="68.87" cx="68.929" id="a">
   <stop offset="0" stop-color="#d4e4f7"/>
   <stop offset="1" stop-color="#7fb5f7"/>
  </radialGradient>
 </defs>
 <g>
  <title>background</title>
  <rect fill="none" id="canvas_background" height="602" width="802" y="-1" x="-1"/>
 </g>
 <g>
  <title>Layer 1</title>
  <path id="svg_1" fill="#5471af" d="m0,68.871c0,35.113 27.543,65.416 62.537,68.633c35.007,3.221 67.765,-21.396 74.17,-56.017c6.402,-34.611 -15.202,-69.478 -49.123,-78.99c-33.933,-9.515 -70.598,8.96 -83.112,41.899c-2.965,7.801 -4.472,16.13 -4.472,24.475"/>
  <path id="svg_2" fill="url(#a)" d="m4.875,68.871c0,34.907 29.146,64.053 64.053,64.053s64.054,-29.146 64.054,-64.053s-29.146,-64.054 -64.054,-64.054s-64.053,29.146 -64.053,64.054"/>
  <path id="svg_3" fill="#68a0f2" d="m11.052,43.973c-5.174,30.165 12.842,60.467 41.812,70.339c30.729,10.469 65.307,-5.005 78.158,-34.77c-6.176,36.021 -43.212,59.701 -78.5,50.178c-36.435,-9.833 -56.487,-51.005 -41.47,-85.747"/>
  <path id="svg_4" fill="#b3e7fc" d="m28.922,40.437c8.858,1.832 19.056,-10.717 26.738,-13.909c14.351,-5.965 32.277,-3.196 45.275,4.927c13.751,8.592 23.531,25.095 25.036,41.294c0.004,0.046 0.004,0.055 0,0.024c-1.016,-9.81 -0.33,-19.031 -4.062,-28.514c-6.192,-15.718 -19.578,-28.025 -35.72,-32.97c-16.685,-5.112 -34.933,-1.859 -49.307,7.882c-4.439,3.01 -21.528,18.456 -7.96,21.266"/>
  <path transform="rotate(-90, 68.9824, 68.0273)" id="svg_5" fill="#fff" d="m63.54243,33.53928c-1.06058,4.15167 0.50908,10.29398 -0.50908,10.70502c-1.01815,0.41104 -18.88269,-0.17296 -23.95518,0.82703c-5.07249,0.99999 -7.7932,5.12292 -7.7932,13.14094c0,8.01802 -4.22639,31.45995 6.27495,31.45995c3.00969,0 25.47344,2.41397 25.47344,0.658l0.50908,9.49505c0,4.621 4.85766,9.062 9.15737,4.851l19.77478,-19.356c4.09607,-4.011 20.23804,-15.262 13.36442,-22.041c-5.03177,-6.745 -12.74436,-12.528 -18.75152,-18.431l-12.36254,-12.151c-2.59937,-3.55699 -9.52799,-4.77701 -11.18249,0.967"/>
  <path transform="rotate(-90, 68.6875, 68.5117)" id="svg_6" fill="#5471af" d="m66.3783,29.71929c-5.067,2.091 -4.01566,4.80774 -3.849,10.50804c0.16667,5.7003 -0.16667,0.2757 0,3.72603l-21.00687,0.125c-8.599,-0.5 -11.80012,8.60794 -11.67512,16.44994c0.125,7.842 -2.90501,30.34295 8.505,31.71794c11.41,1.37499 11.94466,0.125 17.41699,0.125c2.05133,0 4.60266,0.375 6.654,0.375c0.737,0 0.855,0.36805 0.605,-0.68694c-0.25,-1.05498 -1.422,11.505 1.957,14.28c4.292,3.524 8.198,0.035 11.159,-2.916l23.639,-23.561c5.424,-5.406 12.105,-10.791 4.822,-18.079c-7.646,-7.652 -15.292,-15.305 -22.939,-22.957c-3.79,-3.795 -8.988,-11.714 -15.288,-9.107m-34.08799,48.662c-0.375,-7.24698 -2.354,-27.98796 4.67401,-31.35995c7.02801,-3.37199 25.47198,0.5 26.64599,-1.74998c1.17401,-2.24998 -4.07001,-15.99908 7.22299,-14.09607c2.343,0.701 4.5,3.885 6.11,5.497l12.659,12.67c3.661,3.663 19.029,14.639 16.418,21.124c-1.003,2.493 -4.069,4.67 -5.884,6.479l-12.657,12.616c-3.491,3.478 -14.159,18.52 -20.357,15.954c-6.246,-2.589 0.27301,-14.96306 -5.29899,-14.71206c-5.572,0.251 -26.78303,2.32401 -28.53301,-5.797"/>
  <path id="svg_10" d="m90.3518,100.62409l-119.35154,-47.62457" opacity="0.5" stroke-width="null" fill="#5471af"/>
  <path id="svg_11" d="m30.10235,76.62431" opacity="0.5" stroke-width="null" fill="#5471af"/>
  <path id="svg_12" d="m-27.89713,33.74969" opacity="0.5" stroke-width="null" fill="#5471af"/>
  <path id="svg_15" d="m84.36975,81.93963c0,2.7959 -4.30726,5.06242 -9.62054,5.06242m9.62054,-5.06242l0,0c0,2.7959 -4.30726,5.06242 -9.62054,5.06242c-5.31327,0 -9.62054,-2.26652 -9.62054,-5.06242m0,0l0,0c0,-2.7959 4.30726,-5.06242 9.62054,-5.06242c5.31328,0 9.62054,2.26653 9.62054,5.06242l0,20.3747c0.5,7.42085 -4.30726,6.4374 -9.62054,6.4374c-5.31327,0 -9.62054,-0.14154 -9.62054,-2.93743l0,-23.87467z" stroke-width="null" fill="url(#a)"/>
  <path id="svg_21" d="m84.82469,106.07935c0.09567,-4.03579 0.44134,-6.3216 0.53701,-10.35739c0.6027,-2.7741 1.05839,-10.33651 -0.58007,-14.14395c-1.61433,-3.77 -5.00605,-4.76088 -8.80744,-4.69911c-3.80453,-0.0599 -9.30554,-0.07818 -10.91882,3.68994c-1.63846,3.80744 -1.53595,18.0773 -1.56637,21.27076c-0.049,2.78671 -1.07157,5.81848 0.353,5.48515c1.42457,-0.33333 0.09917,-0.41666 1.39875,0c1.29958,0.41666 -0.35032,-6.02665 0.03701,-10.60246c-0.46233,-5.5256 0.07268,-14.72257 1.43177,-16.18016c1.35908,-1.45759 5.10044,-2.40286 7.37246,-2.46089c2.27097,0.0599 4.60036,0.07704 7.4374,1.62219c2.83704,1.54515 2.5561,11.44007 2.52778,12.14391c-0.58333,4.99247 -0.41666,9.98494 -0.99999,14.72742c0.5925,0.0432 1.185,-0.4136 1.77751,-0.37041z" stroke-width="null" fill="#5471af"/>
 </g>
</svg>