<svg width="350" height="350" xmlns="http://www.w3.org/2000/svg" preserveAspectRatio="xMidYMid">
 <defs>
  <linearGradient id="linearGradient-1" y2="78.2008538%" x2="79.6388325%" y1="12.0393928%" x1="12.9593594%">
   <stop offset="0%" stop-color="#387EB8"/>
   <stop offset="100%" stop-color="#366994"/>
  </linearGradient>
  <linearGradient id="linearGradient-2" y2="88.4290372%" x2="90.7415328%" y1="20.5791813%" x1="19.127525%">
   <stop offset="0%" stop-color="#FFE052"/>
   <stop offset="100%" stop-color="#FFC331"/>
  </linearGradient>
 </defs>
 <g>
  <title>background</title>
  <rect fill="none" id="canvas_background" height="352" width="352" y="-1" x="-1"/>
 </g>
 <g>
  <title>Layer 1</title>
  <g id="svg_1">
   <path id="svg_2" fill="url(#linearGradient-1)" d="m173.09522,2.0725c-87.42611,0 -81.96665,38.18582 -81.96665,38.18582l0.09746,39.56014l83.42861,0l0,11.87785l-116.56613,0c0,0 -55.94395,-6.39017 -55.94395,82.45786c0,88.84799 48.82912,85.69725 48.82912,85.69725l29.14153,0l0,-41.22892c0,0 -1.5708,-49.18021 48.04942,-49.18021l82.74636,0c0,0 46.49001,0.75692 46.49001,-45.25365l0,-76.07718c0,-0.00001 7.05846,-46.03896 -84.30577,-46.03896l0,0l0,0zm-46.00269,26.60247c8.30053,0 15.00934,6.75705 15.00934,15.11727c0.00001,8.36022 -6.70881,15.11728 -15.00934,15.11728c-8.30053,0 -15.00936,-6.75706 -15.00936,-15.11728c0,-8.36022 6.70882,-15.11727 15.00936,-15.11727l0,0l0,0z"/>
   <path id="svg_3" fill="url(#linearGradient-2)" d="m175.57812,347.12669c87.42612,0 81.96665,-38.18584 81.96665,-38.18584l-0.09747,-39.56012l-83.4286,0l0,-11.87787l116.56613,0c0,0 55.94395,6.39016 55.94395,-82.45787c0.00003,-88.84799 -48.82912,-85.69725 -48.82912,-85.69725l-29.14153,0l0,41.22891c0,0 1.57082,49.18021 -48.04942,49.18021l-82.74637,0c0,0 -46.49001,-0.75691 -46.49001,45.25369l0,76.07718c0,0 -7.05846,46.03896 84.30578,46.03896l0,0l0,0zm46.00269,-26.60247c-8.30053,0 -15.00934,-6.75706 -15.00934,-15.11728c0,-8.36022 6.70881,-15.11727 15.00934,-15.11727c8.30053,0 15.00936,6.75705 15.00936,15.11727c0.00003,8.36022 -6.70882,15.11728 -15.00936,15.11728l0,0l0,0z"/>
  </g>
 </g>
</svg>